0
SECTION
2
HEADER
9
$INSUNITS
70
4
9
$ACADVER
1
AC1014
9
$HANDSEED
5
FFFF
0
ENDSEC
0
SECTION
2
TABLES
0
TABLE
2
VPORT
5
8
100
AcDbSymbolTable
0
ENDTAB
0
TABLE
2
LTYPE
5
5
100
AcDbSymbolTable
0
LTYPE
5
14
100
AcDbSymbolTableRecord
100
AcDbLinetypeTableRecord
2
BYBLOCK
70
0
0
LTYPE
5
15
100
AcDbSymbolTableRecord
100
AcDbLinetypeTableRecord
2
BYLAYER
70
0
0
ENDTAB
0
TABLE
2
LAYER
5
2
100
AcDbSymbolTable
70
2
0
LAYER
5
50
100
AcDbSymbolTableRecord
100
AcDbLayerTableRecord
2
0
70
0
6
CONTINUOUS
0
ENDTAB
0
TABLE
2
STYLE
5
3
100
AcDbSymbolTable
70
1
0
STYLE
5
11
100
AcDbSymbolTableRecord
100
AcDbTextStyleTableRecord
2
STANDARD
70
0
0
ENDTAB
0
TABLE
2
VIEW
5
6
100
AcDbSymbolTable
70
0
0
ENDTAB
0
TABLE
2
UCS
5
7
100
AcDbSymbolTable
70
0
0
ENDTAB
0
TABLE
2
APPID
5
9
100
AcDbSymbolTable
70
2
0
APPID
5
12
100
AcDbSymbolTableRecord
100
AcDbRegAppTableRecord
2
ACAD
70
0
0
ENDTAB
0
TABLE
2
DIMSTYLE
5
A
100
AcDbSymbolTable
70
1
0
ENDTAB
0
TABLE
2
BLOCK_RECORD
5
1
100
AcDbSymbolTable
70
1
0
BLOCK_RECORD
5
1F
100
AcDbSymbolTableRecord
100
AcDbBlockTableRecord
2
*MODEL_SPACE
0
BLOCK_RECORD
5
1B
100
AcDbSymbolTableRecord
100
AcDbBlockTableRecord
2
*PAPER_SPACE
0
ENDTAB
0
ENDSEC
0
SECTION
2
BLOCKS
0
BLOCK
5
20
100
AcDbEntity
100
AcDbBlockBegin
2
*MODEL_SPACE
0
ENDBLK
5
21
100
AcDbEntity
100
AcDbBlockEnd
0
BLOCK
5
1C
100
AcDbEntity
100
AcDbBlockBegin
2
*PAPER_SPACE
0
ENDBLK
5
1D
100
AcDbEntity
100
AcDbBlockEnd
0
ENDSEC
0
SECTION
2
ENTITIES
0
ARC
5
100
100
AcDbEntity
8
0
100
AcDbCircle
10
-4.3966208487961653
20
3.1363737793221329
30
0
40
4.8252332446832344
210
0
220
0
230
1
100
AcDbArc
50
232.77138602570759
51
297.99801411234523
0
LINE
5
101
100
AcDbEntity
8
0
100
AcDbLine
10
-29.895961245675096
20
47.049699377897866
30
0
11
-3.3017886334530799
21
-25.502711666381551
31
0
0
LINE
5
102
100
AcDbEntity
8
0
100
AcDbLine
10
-3.9181987666711802
20
26.833080088029703
30
0
11
2.8040414600032451
21
8.4996976516449063
31
0
0
LINE
5
103
100
AcDbEntity
8
0
100
AcDbLine
10
-18.195958070610178
20
23.499697316368781
30
0
11
-27.345961124556595
21
47.049699377897866
31
0
0
LINE
5
104
100
AcDbEntity
8
0
100
AcDbLine
10
-94.395964309260705
20
4.2996973473818203
30
0
11
-94.395964309260705
21
7.2996974898741751
31
0
0
LINE
5
105
100
AcDbEntity
8
0
100
AcDbLine
10
-80.723420321846305
20
2.2036930304335294
30
0
11
-80.989487874829749
21
1.4802284732217943
31
0
0
LINE
5
106
100
AcDbEntity
8
0
100
AcDbLine
10
83.767359733533254
20
43.254009220639666
30
0
11
83.980791612526659
21
14.334897444357843
31
0
0
LINE
5
107
100
AcDbEntity
8
0
100
AcDbLine
10
65.523499846743533
20
-11.970560253016295
30
0
11
61.069277268397784
21
-11.970560253016295
31
0
0
LINE
5
108
100
AcDbEntity
8
0
100
AcDbLine
10
-3.3017886334530799
20
-25.502711666381551
30
0
11
-27.968613553159891
21
-25.502711666381551
31
0
0
ARC
5
109
100
AcDbEntity
8
0
100
AcDbCircle
10
71.805640720339426
20
-80.268635017085472
30
0
40
12.175150892187192
210
-0
220
0
230
1
100
AcDbArc
50
-46.507460109226194
51
0
0
LINE
5
110
100
AcDbEntity
8
0
100
AcDbLine
10
-88.395964024275997
20
-26.00030157722
30
0
11
-61.695962756094062
21
46.599699356524013
31
0
0
ARC
5
111
100
AcDbEntity
8
0
100
AcDbCircle
10
69.216769339099102
20
-84.053849453338898
30
0
40
3.7511237658773666
210
0
220
0
230
1
100
AcDbArc
50
166.09479017785401
51
226.50746010922646
0
LINE
5
112
100
AcDbEntity
8
0
100
AcDbLine
10
86.776288996628622
20
43.368434737704042
30
0
11
87.116343486135094
21
-2.1712720325669093
31
0
0
LINE
5
113
100
AcDbEntity
8
0
100
AcDbLine
10
-86.29596392453135
20
-1.4003029233536517
30
0
11
-88.395964024275997
21
-1.4003029233536517
31
0
0
LINE
5
114
100
AcDbEntity
8
0
100
AcDbLine
10
83.767359733533254
20
43.254009220639666
30
0
11
83.980791612526659
21
14.334897444357843
31
0
0
ARC
5
115
100
AcDbEntity
8
0
100
AcDbCircle
10
-35.587289877873019
20
-82.854472397252579
30
0
40
7.767148375860188
210
0
220
0
230
1
100
AcDbArc
50
181.07578922043868
51
268.97047701030419
0
LINE
5
116
100
AcDbEntity
8
0
100
AcDbLine
10
-94.395964309260705
20
7.2996974898741751
30
0
11
-89.874699446292567
21
19.871291574852165
31
0
0
LINE
5
117
100
AcDbEntity
8
0
100
AcDbLine
10
65.574953011603895
20
-83.154903768817618
30
0
11
65.523499846743533
21
-77.299159520665071
31
0
0
LINE
5
118
100
AcDbEntity
8
0
100
AcDbLine
10
-10.657875839460543
20
1.833739401420905
30
0
11
-18.195958070610178
21
23.499697316368781
31
0
0
LINE
5
119
100
AcDbEntity
8
0
100
AcDbLine
10
55.427262002493187
20
-90.364879083812582
30
0
11
54.989076465218048
21
-90.609203496303678
31
0
0
LINE
5
120
100
AcDbEntity
8
0
100
AcDbLine
10
-89.874699446292567
20
19.871291574852165
30
0
11
-75.465540561761927
21
59.936649852348516
31
0
0
LINE
5
121
100
AcDbEntity
8
0
100
AcDbLine
10
25.138548469742151
20
-1.8743238606772004
30
0
11
25.138548469742151
21
29.602180907721451
31
0
0
LINE
5
122
100
AcDbEntity
8
0
100
AcDbLine
10
39.689008892338229
20
43.292703858215766
30
0
11
39.689008892338229
21
-0.092634207091231158
31
0
0
LINE
5
123
100
AcDbEntity
8
0
100
AcDbLine
10
-7.3158716798992014
20
-0.70561144328095904
30
0
11
-10.657875839460543
21
1.833739401420905
31
0
0
LINE
5
124
100
AcDbEntity
8
0
100
AcDbLine
10
101.3222191403998
20
33.025607455724824
30
0
11
101.3222191403998
21
-1.9080951489094133
31
0
0
LINE
5
125
100
AcDbEntity
8
0
100
AcDbLine
10
-0.55707865333396778
20
-0.28709007379973894
30
0
11
-2.1314587255911954
21
-1.1241328127621764
31
0
0
ARC
5
126
100
AcDbEntity
8
0
100
AcDbCircle
10
55.9840398247864
20
-83.2381229584594
30
0
40
5.0852374436113656
210
-0
220
0
230
1
100
AcDbArc
50
-39.966213043799819
51
0
0
LINE
5
127
100
AcDbEntity
8
0
100
AcDbLine
10
-90.19596410977141
20
-0.80030289485518102
30
0
11
-91.995964195266822
21
0.39969716214176054
31
0
0
LINE
5
128
100
AcDbEntity
8
0
100
AcDbLine
10
59.881484580838915
20
-86.504552849246252
30
0
11
59.173369656354893
21
-87.349462702323777
31
0
0
LINE
5
129
100
AcDbEntity
8
0
100
AcDbLine
10
-43.353069176467791
20
-83.000300303170718
30
0
11
-43.353069176467791
21
-26.00030157722
31
0
0
LINE
5
130
100
AcDbEntity
8
0
100
AcDbLine
10
-70.240077534553762
20
30.708961195090147
30
0
11
-80.723420321846305
21
2.2036930304335294
31
0
0
LINE
5
131
100
AcDbEntity
8
0
100
AcDbLine
10
42.770358628262137
20
-80.862537583341663
30
0
11
42.770358628262137
21
11.785291838833846
31
0
0
LINE
5
132
100
AcDbEntity
8
0
100
AcDbLine
10
101.3222191403998
20
33.025607455724824
30
0
11
101.3222191403998
21
-1.9080951489094133
31
0
0
LINE
5
133
100
AcDbEntity
8
0
100
AcDbLine
10
-91.995964195266822
20
0.39969716214176054
30
0
11
-93.495964266512999
21
2.4996972618864084
31
0
0
ARC
5
134
100
AcDbEntity
8
0
100
AcDbCircle
10
-73.651670751653839
20
60.547848592315219
30
0
40
1.4999999999993949
210
0
220
0
230
1
100
AcDbArc
50
137.801786710584
51
160.21931806477883
0
CIRCLE
5
135
100
AcDbEntity
8
0
100
AcDbCircle
10
-45.95249340673216
20
93.517160571784359
30
0
40
16.738942627925667
210
0
220
0
230
1
0
LINE
5
136
100
AcDbEntity
8
0
100
AcDbLine
10
-48.255640649413408
20
-26.00030157722
30
0
11
-48.255640649413408
21
-83.000300303170718
31
0
0
LINE
5
137
100
AcDbEntity
8
0
100
AcDbLine
10
57.71544923839096
20
-89.089026837394485
30
0
11
55.427262002493187
21
-90.364879083812582
31
0
0
LINE
5
138
100
AcDbEntity
8
0
100
AcDbLine
10
25.138548469742151
20
51.434377444640319
30
0
11
26.405533097302207
21
56.113641469931828
31
0
0
LINE
5
139
100
AcDbEntity
8
0
100
AcDbLine
10
69.086872309191037
20
-89.10126857456298
30
0
11
66.635020432357095
21
-86.775154671330171
31
0
0
LINE
5
140
100
AcDbEntity
8
0
100
AcDbLine
10
-63.508085231910918
20
-83.000300303170718
30
0
11
-63.508085231910918
21
-26.00030157722
31
0
0
LINE
5
141
100
AcDbEntity
8
0
100
AcDbLine
10
46.415912675140476
20
71.467327103575144
30
0
11
77.995308132678318
21
71.49271882579761
31
0
0
LINE
5
142
100
AcDbEntity
8
0
100
AcDbLine
10
-73.964270190766641
20
62.43622598532351
30
0
11
-69.058039465299771
21
67.847383696613022
31
0
0
LINE
5
143
100
AcDbEntity
8
0
100
AcDbLine
10
100.77204229326671
20
50.388551488089554
30
0
11
101.3222191403998
21
33.025607455724824
31
0
0
LINE
5
144
100
AcDbEntity
8
0
100
AcDbLine
10
43.846283298794255
20
-86.207604677356571
30
0
11
42.955438783125111
21
-83.832019302238834
31
0
0
LINE
5
145
100
AcDbEntity
8
0
100
AcDbLine
10
65.523499846743533
20
-77.299159520665071
30
0
11
65.523499846743533
21
-11.970560253016295
31
0
0
ARC
5
146
100
AcDbEntity
8
0
100
AcDbCircle
10
-3.918238881581666
20
6.0348615263971048
30
0
40
7.1599210969944052
210
-0
220
0
230
1
100
AcDbArc
50
-62.001985887654797
51
20.13630342824813
0
LINE
5
147
100
AcDbEntity
8
0
100
AcDbLine
10
42.770358628262137
20
11.785291838833846
30
0
11
42.770358628262137
21
43.292703858215766
31
0
0
LINE
5
148
100
AcDbEntity
8
0
100
AcDbLine
10
-88.395964024275997
20
-1.4003029233536517
30
0
11
-90.19596410977141
21
-0.80030289485518102
31
0
0
ARC
5
149
100
AcDbEntity
8
0
100
AcDbCircle
10
-55.791934720206136
20
-82.799756979083767
30
0
40
7.718756139697498
210
0
220
0
230
1
100
AcDbArc
50
181.48878640228241
51
275.4057255325875
0
LINE
5
150
100
AcDbEntity
8
0
100
AcDbLine
10
-13.695958171193016
20
53.499696645816528
30
0
11
-3.9181987666711802
21
26.833080088029703
31
0
0
LINE
5
151
100
AcDbEntity
8
0
100
AcDbLine
10
61.069277268397784
20
-77.29915350560421
30
0
11
61.069277268397784
21
-83.2381229584594
31
0
0
ARC
5
152
100
AcDbEntity
8
0
100
AcDbCircle
10
-35.367483345330122
20
51.490205702316906
30
0
40
21.000000000000007
210
0
220
-0
230
1
100
AcDbArc
50
60.988464632109164
51
90
0
ARC
5
153
100
AcDbEntity
8
0
100
AcDbCircle
10
74.63609194371854
20
-83.252086143311104
30
0
40
8.0626778223051367
210
0
220
0
230
1
100
AcDbArc
50
226.50746010922606
51
313.49253989077374
0
LINE
5
154
100
AcDbEntity
8
0
100
AcDbLine
10
-63.508085231910918
20
-26.00030157722
30
0
11
-88.395964024275997
21
-26.00030157722
31
0
0
LINE
5
155
100
AcDbEntity
8
0
100
AcDbLine
10
83.980791612526659
20
14.334897444357843
30
0
11
83.980791612526659
21
-80.268635017085472
31
0
0
LINE
5
156
100
AcDbEntity
8
0
100
AcDbLine
10
-25.182783692863786
20
69.855169437349232
30
0
11
-26.080402223884064
21
70.352963784935682
31
0
0
LINE
5
157
100
AcDbEntity
8
0
100
AcDbLine
10
-84.495963839035937
20
-0.80030289485518102
30
0
11
-86.29596392453135
21
-1.4003029233536517
31
0
0
LINE
5
158
100
AcDbEntity
8
0
100
AcDbLine
10
42.955438783125111
20
-83.832019302238834
30
0
11
42.770358628262137
21
-83.338472222604281
31
0
0
LINE
5
159
100
AcDbEntity
8
0
100
AcDbLine
10
-82.695963753540525
20
0.099697147892525151
30
0
11
-84.495963839035937
21
-0.80030289485518102
31
0
0
ARC
5
160
100
AcDbEntity
8
0
100
AcDbCircle
10
-55.772957575289396
20
-83.000300303170718
30
0
40
7.5173169258760018
210
-0
220
0
230
1
100
AcDbArc
50
-84.594274467412518
51
0
0
LINE
5
161
100
AcDbEntity
8
0
100
AcDbLine
10
-80.989487874829749
20
1.4802284732217943
30
0
11
-82.695963753540525
21
0.099697147892525151
31
0
0
LINE
5
162
100
AcDbEntity
8
0
100
AcDbLine
10
83.980791612526659
20
14.334897444357843
30
0
11
83.980791612526659
21
-80.268635017085472
31
0
0
ARC
5
163
100
AcDbEntity
8
0
100
AcDbCircle
10
-56.962568784718172
20
54.516982764338316
30
0
40
17.999999999999982
210
0
220
-0
230
1
100
AcDbArc
50
88.483894056316899
51
180
0
ARC
5
164
100
AcDbEntity
8
0
100
AcDbCircle
10
-35.589910478253131
20
-83.000300303170718
30
0
40
7.6212969250932741
210
0
220
0
230
1
100
AcDbArc
50
-91.029522989695764
51
0
0
LINE
5
165
100
AcDbEntity
8
0
100
AcDbLine
10
-27.968613553159891
20
-25.502711666381551
30
0
11
-27.968613553159891
21
-83.000300303170718
31
0
0
LINE
5
166
100
AcDbEntity
8
0
100
AcDbLine
10
-56.486325636301629
20
72.51068145203412
30
0
11
-55.712698819745611
21
72.490205702316899
31
0
0
ARC
5
167
100
AcDbEntity
8
0
100
AcDbCircle
10
33.641229436272326
20
0.74757620777949452
30
0
40
9.3082885632183618
210
0
220
0
230
1
100
AcDbArc
50
221.00779719936662
51
252.10193011122345
0
LINE
5
168
100
AcDbEntity
8
0
100
AcDbLine
10
-43.353069176467791
20
-26.00030157722
30
0
11
-48.255640649413408
21
-26.00030157722
31
0
0
LINE
5
169
100
AcDbEntity
8
0
100
AcDbLine
10
100.77204229326671
20
50.706347780817168
30
0
11
100.77204229326671
21
50.388551488089554
31
0
0
LINE
5
170
100
AcDbEntity
8
0
100
AcDbLine
10
77.995308132678318
20
71.49271882579761
30
0
11
79.985671248286266
21
71.49271882579761
31
0
0
CIRCLE
5
171
100
AcDbEntity
8
0
100
AcDbCircle
10
63.147909286228497
20
91.961292648828106
30
0
40
16.575884996160667
210
0
220
0
230
1
0
CIRCLE
5
172
100
AcDbEntity
8
0
100
AcDbCircle
10
63.147909286228497
20
91.961292648828106
30
0
40
16.575884996160667
210
0
220
0
230
1
0
ARC
5
173
100
AcDbEntity
8
0
100
AcDbCircle
10
47.96128149276592
20
-85.019421730555678
30
0
40
4.2831050479130868
210
0
220
0
230
1
100
AcDbArc
50
196.10578039251803
51
240.85674476450208
0
LINE
5
174
100
AcDbEntity
8
0
100
AcDbLine
10
-64.39596288433718
20
46.599699356524013
30
0
11
-70.240077534553762
21
30.708961195090147
31
0
0
LINE
5
175
100
AcDbEntity
8
0
100
AcDbLine
10
90.467146285479686
20
-7.516339126581812
30
0
11
88.703807994860767
21
-5.501095365874475
31
0
0
LINE
5
176
100
AcDbEntity
8
0
100
AcDbLine
10
100.77204229326671
20
50.706347780817168
30
0
11
100.77204229326671
21
50.388551488089554
31
0
0
LINE
5
177
100
AcDbEntity
8
0
100
AcDbLine
10
101.3222191403998
20
-1.9080951489094133
30
0
11
101.3222191403998
21
-3.062116548236069
31
0
0
ARC
5
178
100
AcDbEntity
8
0
100
AcDbCircle
10
-68.408078619393308
20
57.398494827132083
30
0
40
7.5000000000008473
210
0
220
0
230
1
100
AcDbArc
50
137.80178671058897
51
160.21931806477275
0
ARC
5
179
100
AcDbEntity
8
0
100
AcDbCircle
10
46.469428505532093
20
50.681024948658333
30
0
40
20.786371044980449
210
0
220
0
230
1
100
AcDbArc
50
269.04254296412773
51
269.8592453380794
0
LINE
5
180
100
AcDbEntity
8
0
100
AcDbLine
10
99.672539614060881
20
-5.734650095243512
30
0
11
97.296954238943144
21
-7.8132872984715265
31
0
0
ARC
5
181
100
AcDbEntity
8
0
100
AcDbCircle
10
31.234161861040732
20
-1.3454308820252909
30
0
40
6.1185153754032431
210
0
220
0
230
1
100
AcDbArc
50
184.95891558974765
51
221.00779719936708
0
LINE
5
182
100
AcDbEntity
8
0
100
AcDbLine
10
61.069277268397784
20
-11.970560253016295
30
0
11
61.069277268397784
21
-77.29915350560421
31
0
0
ARC
5
183
100
AcDbEntity
8
0
100
AcDbCircle
10
79.985671248286266
20
50.706347780817168
30
0
40
20.786371044980445
210
0
220
0
230
1
100
AcDbArc
50
0
51
90
0
ARC
5
184
100
AcDbEntity
8
0
100
AcDbCircle
10
-36.265101876350258
20
51.988000049903349
30
0
40
20.999999999999947
210
0
220
-0
230
1
100
AcDbArc
50
25.646197315347642
51
60.988464632109505
0
ARC
5
185
100
AcDbEntity
8
0
100
AcDbCircle
10
79.985671248286266
20
50.706347780817168
30
0
40
20.786371044980445
210
0
220
0
230
1
100
AcDbArc
50
0
51
90
0
LINE
5
186
100
AcDbEntity
8
0
100
AcDbLine
10
-55.712698819745611
20
72.490205702316899
30
0
11
-35.274157963854051
21
72.490205702316899
31
0
0
LINE
5
187
100
AcDbEntity
8
0
100
AcDbLine
10
42.770358628262137
20
43.292703858215766
30
0
11
39.689008892338229
21
43.292703858215766
31
0
0
LINE
5
188
100
AcDbEntity
8
0
100
AcDbLine
10
-27.345961124556595
20
47.049699377897866
30
0
11
-29.895961245675096
21
47.049699377897866
31
0
0
ARC
5
189
100
AcDbEntity
8
0
100
AcDbCircle
10
71.805640720339426
20
-80.268635017085472
30
0
40
12.175150892187192
210
-0
220
0
230
1
100
AcDbArc
50
-46.507460109226194
51
0
0
LINE
5
190
100
AcDbEntity
8
0
100
AcDbLine
10
-93.495964266512999
20
2.4996972618864084
30
0
11
-94.395964309260705
21
4.2996973473818203
31
0
0
LINE
5
191
100
AcDbEntity
8
0
100
AcDbLine
10
-17.333941139617913
20
61.077067832685124
30
0
11
-13.695958171193016
21
53.499696645816528
31
0
0
LINE
5
192
100
AcDbEntity
8
0
100
AcDbLine
10
94.921368863825421
20
-8.4071836422509545
30
0
11
93.139679832487104
21
-8.4071836422509545
31
0
0
LINE
5
193
100
AcDbEntity
8
0
100
AcDbLine
10
59.173369656354893
20
-87.349462702323777
30
0
11
57.71544923839096
21
-89.089026837394485
31
0
0
ARC
5
194
100
AcDbEntity
8
0
100
AcDbCircle
10
46.469428505532093
20
50.681024948658333
30
0
40
20.786371044980449
210
0
220
0
230
1
100
AcDbArc
50
90.147511780642674
51
164.84953741298736
0
LINE
5
195
100
AcDbEntity
8
0
100
AcDbLine
10
87.116343486135094
20
-3.6868502130451208
30
0
11
87.116343486135094
21
-2.1712720325669093
31
0
0
LINE
5
196
100
AcDbEntity
8
0
100
AcDbLine
10
94.921368863825421
20
-8.4071836422509545
30
0
11
93.139679832487104
21
-8.4071836422509545
31
0
0
ARC
5
197
100
AcDbEntity
8
0
100
AcDbCircle
10
69.216769339099102
20
-84.053849453338898
30
0
40
3.7511237658773884
210
0
220
0
230
1
100
AcDbArc
50
166.13429103476716
51
226.50746010922646
0
LINE
5
198
100
AcDbEntity
8
0
100
AcDbLine
10
77.995316843634839
20
71.49271882579761
30
0
11
79.985671248286266
21
71.49271882579761
31
0
0
ARC
5
199
100
AcDbEntity
8
0
100
AcDbCircle
10
52.090213429013687
20
-85.410214807228641
30
0
40
5.9525532582080389
210
0
220
0
230
1
100
AcDbArc
50
240.85674476450157
51
299.14325523549701
0
ARC
5
200
100
AcDbEntity
8
0
100
AcDbCircle
10
74.63609194371854
20
-83.252086143311104
30
0
40
8.0626778223051367
210
0
220
0
230
1
100
AcDbArc
50
226.50746010922606
51
313.49253989077374
0
LINE
5
201
100
AcDbEntity
8
0
100
AcDbLine
10
-35.274157963854051
20
72.490205702316899
30
0
11
-35.367483345330122
21
72.490205702316914
31
0
0
LINE
5
202
100
AcDbEntity
8
0
100
AcDbLine
10
42.770358628262137
20
-83.338472222604281
30
0
11
42.770358628262137
21
-80.862537583341663
31
0
0
LINE
5
203
100
AcDbEntity
8
0
100
AcDbLine
10
100.77204229326671
20
50.388551488089554
30
0
11
101.3222191403998
21
33.025607455724824
31
0
0
LINE
5
204
100
AcDbEntity
8
0
100
AcDbLine
10
93.139679832487104
20
-8.4071836422509545
30
0
11
90.467146285479686
21
-7.516339126581812
31
0
0
ARC
5
205
100
AcDbEntity
8
0
100
AcDbCircle
10
32.747091904484961
20
-2.0210457494097263
30
0
40
6.3988643130305327
210
0
220
0
230
1
100
AcDbArc
50
252.10193011122345
51
328.54490083323464
0
LINE
5
206
100
AcDbEntity
8
0
100
AcDbLine
10
86.78092688845436
20
43.276250266814372
30
0
11
83.767359733533254
21
43.254009220639666
31
0
0
LINE
5
207
100
AcDbEntity
8
0
100
AcDbLine
10
25.138548469742151
20
29.602180907721451
30
0
11
25.138548469742151
21
51.434377444640319
31
0
0
ARC
5
208
100
AcDbEntity
8
0
100
AcDbCircle
10
29.594667629959254
20
-0.092634207091231158
30
0
40
10.094341262378983
210
-0
220
0
230
1
100
AcDbArc
50
-31.455099166765351
51
0
0
LINE
5
209
100
AcDbEntity
8
0
100
AcDbLine
10
69.086872309191037
20
-89.10126857456298
30
0
11
66.635020432357095
21
-86.775154671330171
31
0
0
LINE
5
210
100
AcDbEntity
8
0
100
AcDbLine
10
49.191350392809156
20
-90.609203496303678
30
0
11
45.875431208863759
21
-88.760306311053114
31
0
0
LINE
5
211
100
AcDbEntity
8
0
100
AcDbLine
10
88.703807994860767
20
-5.501095365874475
30
0
11
87.116343486135094
21
-3.6868502130451208
31
0
0
LINE
5
212
100
AcDbEntity
8
0
100
AcDbLine
10
46.122088245671613
20
29.897556134153817
30
0
11
46.418377554733368
21
29.666315954905158
31
0
0
LINE
5
213
100
AcDbEntity
8
0
100
AcDbLine
10
86.78092688845436
20
43.276250266814372
30
0
11
83.767359733533254
21
43.254009220639666
31
0
0
LINE
5
214
100
AcDbEntity
8
0
100
AcDbLine
10
-61.695962756094062
20
46.599699356524013
30
0
11
-64.39596288433718
21
46.599699356524013
31
0
0
LINE
5
215
100
AcDbEntity
8
0
100
AcDbLine
10
97.296954238943144
20
-7.8132872984715265
30
0
11
94.921368863825421
21
-8.4071836422509545
31
0
0
LINE
5
216
100
AcDbEntity
8
0
100
AcDbLine
10
97.296954238943144
20
-7.8132872984715265
30
0
11
94.921368863825421
21
-8.4071836422509545
31
0
0
LINE
5
217
100
AcDbEntity
8
0
100
AcDbLine
10
101.3222191403998
20
-1.9080951489094133
30
0
11
101.3222191403998
21
-3.062116548236069
31
0
0
LINE
5
218
100
AcDbEntity
8
0
100
AcDbLine
10
99.672539614060881
20
-5.734650095243512
30
0
11
97.296954238943144
21
-7.8132872984715265
31
0
0
LINE
5
219
100
AcDbEntity
8
0
100
AcDbLine
10
101.3222191403998
20
-3.062116548236069
30
0
11
99.672539614060881
21
-5.734650095243512
31
0
0
LINE
5
220
100
AcDbEntity
8
0
100
AcDbLine
10
88.703807994860767
20
-5.501095365874475
30
0
11
87.116343486135094
21
-3.6868502130451208
31
0
0
LINE
5
221
100
AcDbEntity
8
0
100
AcDbLine
10
90.467146285479686
20
-7.516339126581812
30
0
11
88.703807994860767
21
-5.501095365874475
31
0
0
LINE
5
222
100
AcDbEntity
8
0
100
AcDbLine
10
101.3222191403998
20
-3.062116548236069
30
0
11
99.672539614060881
21
-5.734650095243512
31
0
0
LINE
5
223
100
AcDbEntity
8
0
100
AcDbLine
10
87.116343486135094
20
-3.6868502130451208
30
0
11
87.116343486135094
21
-2.1712720325669093
31
0
0
LINE
5
224
100
AcDbEntity
8
0
100
AcDbLine
10
93.139679832487104
20
-8.4071836422509545
30
0
11
90.467146285479686
21
-7.516339126581812
31
0
0
ENDSEC
0
SECTION
2
OBJECTS
0
DICTIONARY
5
C
100
AcDbDictionary
3
ACAD_GROUP
350
D
3
ACAD_MLINESTYLE
350
17
0
DICTIONARY
5
D
100
AcDbDictionary
0
DICTIONARY
5
1A
330
C
100
AcDbDictionary
0
DICTIONARY
5
17
100
AcDbDictionary
0
ENDSEC
0
EOF
